<svg xmlns="http://www.w3.org/2000/svg" width="1820" height="600" viewBox="0 0 1820 600"><rect width="100%" height="100%" fill="#000000"/><path fill="#FFFFFF" d="M503.56 218.85h24.62L461.9 382.97h-27.58l-66.28-164.12h24.51q3.97 0 6.47 1.93t3.75 4.99l38.7 100.11q1.93 4.88 3.69 10.73 1.76 5.84 3.35 12.2 1.36-6.36 2.95-12.2 1.59-5.85 3.52-10.73l38.47-100.11q.91-2.61 3.58-4.76 2.67-2.16 6.53-2.16m72.29 0v164.12h-30.64V218.85zm140.18 24.29h-72.87v45.51h57.43v23.5h-57.43v46.42h72.87v24.4H612.52V218.85h103.51zm57.66-24.29v164.12h-30.65V218.85zm67.19 78.09h19.07q8.62 0 15.03-2.16 6.42-2.16 10.56-5.96t6.19-9.02q2.04-5.22 2.04-11.47 0-12.48-8.23-19.18-8.23-6.69-25.14-6.69h-19.52zm56.52 25.42 41.09 60.61h-27.58q-7.83 0-11.35-6.13l-34.51-52.55q-1.93-2.95-4.25-4.2-2.33-1.25-6.87-1.25h-13.05v64.13h-30.53V218.85h50.05q16.68 0 28.66 3.46 11.97 3.46 19.63 9.7 7.66 6.25 11.3 14.93 3.63 8.68 3.63 19.12 0 8.29-2.44 15.67t-7.04 13.39q-4.6 6.02-11.35 10.56t-15.38 7.15q2.95 1.7 5.45 4.03 2.5 2.32 4.54 5.5m93.41-1.36h52.21l-19.98-54.59q-1.47-3.64-3.06-8.63T1016.8 247q-1.47 5.79-3.06 10.84t-3.07 8.79zm41.66-102.15 64.46 164.12h-23.6q-3.98 0-6.47-1.99-2.5-1.98-3.75-4.93l-12.26-33.49h-67.98l-12.26 33.49q-.91 2.61-3.52 4.76-2.61 2.16-6.47 2.16h-23.84l64.59-164.12zm76.15 107.26v-23.38h58.8v23.38zm140.97 30.75h42.11q4.54 0 7.21 2.56 2.66 2.55 2.66 6.75v16.8h-112.59v-9.31q0-2.83 1.19-5.96 1.2-3.12 3.81-5.61l49.82-49.94q6.24-6.36 11.18-12.15t8.23-11.46q3.29-5.68 5.05-11.52 1.76-5.85 1.76-12.32 0-5.9-1.7-10.38-1.7-4.49-4.83-7.55-3.12-3.06-7.49-4.6-4.37-1.53-9.81-1.53-5 0-9.25 1.42-4.26 1.42-7.55 3.97-3.29 2.56-5.56 5.96-2.27 3.41-3.41 7.49-1.93 5.22-4.99 6.93-3.07 1.7-8.86.79l-14.75-2.61q1.7-11.8 6.58-20.71t12.2-14.87 16.8-8.97 20.37-3.01q11.35 0 20.78 3.35 9.42 3.35 16.11 9.48 6.7 6.13 10.44 14.75 3.75 8.63 3.75 19.19 0 9.08-2.67 16.79-2.66 7.72-7.15 14.76-4.48 7.03-10.5 13.62-6.01 6.58-12.6 13.39l-37 37.8q5.34-1.59 10.62-2.44 5.27-.86 10.04-.86m111.23 2.27h30.87q8.52 0 14.3-2.04 5.79-2.04 9.25-5.45 3.47-3.4 5-7.94t1.53-9.65q0-5.33-1.7-9.59t-5.34-7.26q-3.63-3.01-9.36-4.6t-13.79-1.59h-30.76zm25.99-116.67h-25.99v47.44h24.29q15.66 0 23.66-5.68 8.01-5.67 8.01-18.04 0-12.83-7.27-18.27-7.26-5.45-22.7-5.45m-56.52-23.61h56.52q16.12 0 27.58 3.06 11.47 3.07 18.79 8.74 7.32 5.68 10.72 13.74 3.41 8.05 3.41 18.16 0 5.78-1.7 11.06-1.71 5.28-5.28 9.88-3.58 4.59-9.08 8.34-5.51 3.75-13.11 6.36 33.82 7.6 33.82 36.54 0 10.44-3.97 19.3-3.97 8.85-11.58 15.26-7.6 6.42-18.73 10.05-11.12 3.63-25.42 3.63h-61.97z"/></svg>